<svg width="256" height="192" viewBox="0 0 256 192" fill="none" xmlns="http://www.w3.org/2000/svg">
  <!-- Doctor figure -->
  <g transform="translate(64, 16)">
    <!-- Head -->
    <circle cx="64" cy="32" r="24" fill="#F3E8D0"/>
    
    <!-- Hair -->
    <path d="M40 24 C40 12, 52 8, 64 8 C76 8, 88 12, 88 24 L88 32 C88 20, 76 16, 64 16 C52 16, 40 20, 40 32 Z" fill="#8B4513"/>
    
    <!-- Body -->
    <rect x="48" y="56" width="32" height="48" rx="16" fill="#FFFFFF"/>
    
    <!-- Lab coat -->
    <rect x="44" y="52" width="40" height="52" rx="20" fill="#F8F9FA" stroke="#E9ECEF" stroke-width="2"/>
    
    <!-- Stethoscope -->
    <circle cx="56" cy="68" r="3" fill="#2563EB"/>
    <path d="M56 68 Q64 72, 72 68" stroke="#2563EB" stroke-width="2" fill="none"/>
    <circle cx="72" cy="68" r="3" fill="#2563EB"/>
    
    <!-- Arms -->
    <rect x="32" y="64" width="12" height="32" rx="6" fill="#F3E8D0"/>
    <rect x="84" y="64" width="12" height="32" rx="6" fill="#F3E8D0"/>
    
    <!-- Hands -->
    <circle cx="38" cy="96" r="6" fill="#F3E8D0"/>
    <circle cx="90" cy="96" r="6" fill="#F3E8D0"/>
    
    <!-- Clipboard in left hand -->
    <rect x="32" y="88" width="12" height="16" rx="2" fill="#FFFFFF" stroke="#D1D5DB"/>
    <line x1="35" y1="92" x2="41" y2="92" stroke="#6B7280" stroke-width="1"/>
    <line x1="35" y1="96" x2="41" y2="96" stroke="#6B7280" stroke-width="1"/>
    <line x1="35" y1="100" x2="39" y2="100" stroke="#6B7280" stroke-width="1"/>
    
    <!-- Legs -->
    <rect x="52" y="104" width="8" height="32" rx="4" fill="#1F2937"/>
    <rect x="68" y="104" width="8" height="32" rx="4" fill="#1F2937"/>
    
    <!-- Shoes -->
    <ellipse cx="56" cy="140" rx="8" ry="4" fill="#000000"/>
    <ellipse cx="72" cy="140" rx="8" ry="4" fill="#000000"/>
    
    <!-- Medical cross on coat -->
    <rect x="60" y="72" width="8" height="2" fill="#DC2626"/>
    <rect x="63" y="69" width="2" height="8" fill="#DC2626"/>
  </g>
  
  <!-- Background elements -->
  <circle cx="200" cy="40" r="20" fill="#10B981" opacity="0.1"/>
  <circle cx="40" cy="160" r="16" fill="#3B82F6" opacity="0.1"/>
  <circle cx="220" cy="140" r="12" fill="#F59E0B" opacity="0.1"/>
  
  <!-- Medical icons -->
  <g transform="translate(180, 120)">
    <rect width="24" height="24" rx="4" fill="#EF4444" opacity="0.2"/>
    <path d="M8 12h8M12 8v8" stroke="#EF4444" stroke-width="2" stroke-linecap="round"/>
  </g>
  
  <g transform="translate(20, 60)">
    <rect width="24" height="24" rx="4" fill="#10B981" opacity="0.2"/>
    <path d="M12 2l3.09 6.26L22 9.27l-5 4.87 1.18 6.88L12 17.77l-6.18 3.25L7 14.14 2 9.27l6.91-1.01L12 2z" fill="#10B981" opacity="0.6"/>
  </g>
</svg>
